# written by convert_mb_to_amc()
:FULLY-SPECIFIED
:DEGREES
107
upperback -3.979333 -3.827891 2.286411
rfoot 16.495928 -20.630978
lradius 21.979975
lthumb 5.204772 -288.336487
rradius 20.090853
lwrist 11.699323
rhand -35.313343 318.008118
rhumerus -75.529694 -17.863195 -33.666782
lowerneck -8.383307 9.023558 8.535807
lhand -21.175652 41.747334
ltibia 31.920250
head 4.920107 5.505454 -0.168533
rwrist 18.668968
lfingers 7.125020
rtoes 8.942708
lowerback -3.178672 -2.600215 8.875481
rfingers 7.125020
lclavicle 0.000000 -0.000000
upperneck 10.521485 10.559779 1.444646
rfemur 5.830264 6.238688 12.989851
thorax -2.770339 -2.239598 -2.588345
rclavicle 0.000000 -0.000000
rtibia 18.836279
lfoot -15.245500 27.097700
lhumerus 78.560074 19.671043 71.375114
rthumb -8.447202 -431.803131
root 30.267355 19.575661 -1.539152 920.959351 327.561157 202.408417
ltoes 36.441036
lfemur -53.119446 -32.533829 24.051907
108
upperback -3.233980 -2.794950 3.330903
rfoot 29.565413 -25.191280
lradius 13.807290
lthumb 4.884253 -287.901428
rradius 19.580204
lwrist -1.274735
rhand -31.800310 319.000732
rhumerus -73.401306 -17.388132 -36.167244
lowerneck -9.599949 9.953989 8.020557
lhand -21.507610 42.174732
ltibia 27.884552
head 4.097284 6.031796 -0.047799
rwrist 18.760101
lfingers 7.125020
rtoes 16.270576
lowerback -1.784158 -1.920671 9.220931
rfingers 7.125020
lclavicle -0.000000 -0.000000
upperneck 5.937081 11.857727 1.582757
rfemur 15.384200 9.192535 11.568052
thorax -2.623638 -1.692843 -1.670060
rclavicle -0.000000 -0.000000
rtibia 0.000000
lfoot -15.245500 27.097700
lhumerus 70.656387 26.165201 89.671211
rthumb -5.055928 -430.919006
root 29.817812 19.784910 -1.622554 927.773315 328.083557 211.111481
ltoes 40.455704
lfemur -62.438244 -31.674217 44.316063
109
upperback -1.759259 -1.727297 2.210596
rfoot 31.000225 -33.781521
lradius 13.700386
lthumb 5.322896 -287.410889
rradius 19.614292
lwrist -2.885613
rhand -30.464771 321.130432
rhumerus -72.917694 -15.962205 -41.612213
lowerneck -7.381097 9.943876 7.910976
lhand -21.053288 42.676003
ltibia 21.722502
head 2.168302 5.973445 -0.082572
rwrist 18.938457
lfingers 7.125020
rtoes 18.912834
lowerback -0.556170 -1.245169 8.900576
rfingers 7.125020
lclavicle 0.000000 0.000000
upperneck 1.762814 12.072948 2.225324
rfemur 15.923007 14.123563 10.738176
thorax -1.702696 -1.030473 -2.671453
rclavicle 0.000000 0.000000
rtibia -0.000000
lfoot -15.245500 27.097700
lhumerus 51.363518 30.446981 92.499535
rthumb -3.766285 -428.816040
root 29.811684 19.673504 -1.461979 936.655273 327.295532 218.727570
ltoes 46.898899
lfemur -60.077003 -1.325402 32.086315
110
upperback 0.374306 1.142863 -1.211090
rfoot 32.772045 -37.844555
lradius 11.738596
lthumb 5.287744 -287.365631
rradius 17.196323
lwrist -13.064600
rhand -27.355066 321.153229
rhumerus -78.100571 -18.231325 -46.760021
lowerneck -5.477818 8.207375 10.363013
lhand -21.089708 42.720135
ltibia 14.937500
head 1.235556 4.687196 -0.702076
rwrist 21.164312
lfingers 7.125020
rtoes 18.747084
lowerback 1.084036 0.794204 9.949530
rfingers 7.125020
lclavicle 0.000000 0.000000
upperneck -0.283437 9.764421 2.290963
rfemur 17.999708 17.308895 10.204624
thorax 0.002463 0.580398 -6.873803
rclavicle 0.000000 0.000000
rtibia -0.000000
lfoot -15.245500 27.097700
lhumerus 35.048702 38.181641 100.049889
rthumb -0.763022 -428.825134
root 29.715807 19.599180 -1.405771 942.668518 325.383392 223.244141
ltoes 50.251480
lfemur -122.693008 28.214781 -88.980034
111
upperback 2.161660 1.863340 -2.053200
rfoot 37.979000 -25.045601
lradius 8.661260
lthumb 4.380370 -283.484009
rradius 10.465800
lwrist -15.070300
rhand -13.993200 325.911011
rhumerus -62.949200 -19.848900 -64.270699
lowerneck -2.792140 4.608380 8.917200
lhand -22.029400 46.581200
ltibia 19.511200
head -0.006209 2.635910 -0.911547
rwrist 23.376101
lfingers 7.125020
rtoes 18.471901
lowerback 4.161390 1.212490 9.403990
rfingers 7.125020
lclavicle 0.000000 -0.000000
upperneck -2.190100 5.654990 1.628440
rfemur 11.383100 12.038800 11.425300
thorax 0.299534 1.004050 -7.517890
rclavicle 0.000000 -0.000000
rtibia -0.000000
lfoot -15.245500 27.097700
lhumerus 29.555099 34.873402 106.598000
rthumb 12.135600 -423.717010
root 29.434937 19.449051 -1.387379 946.679016 319.770996 216.315002
ltoes 42.397900
lfemur -73.007103 -9.492840 55.766499
112
upperback 4.148284 3.207063 -3.718483
rfoot 16.784801 -5.140011
lradius 7.273320
lthumb 3.768198 -281.680420
rradius 7.810610
lwrist -7.636527
rhand -18.729078 331.670044
rhumerus 1.731965 -19.153151 -91.793198
lowerneck -1.859655 0.728126 8.573451
lhand -22.663321 48.373672
ltibia 39.496166
head 3.510692 0.261128 -0.791638
rwrist 32.613590
lfingers 7.125020
rtoes 9.856876
lowerback 4.232633 2.354776 8.745241
rfingers 7.125020
lclavicle -0.000000 0.000000
upperneck 9.724449 0.002981 2.160381
rfemur -24.350031 7.829933 21.661682
thorax 2.697895 1.851815 -8.911489
rclavicle -0.000000 0.000000
rtibia 42.647118
lfoot -15.245500 27.097700
lhumerus 47.401409 8.184096 100.554153
rthumb 7.566626 -418.173767
root 29.389402 18.995586 -1.433773 935.952820 317.611877 204.461563
ltoes 24.791616
lfemur -72.877312 -7.522440 10.671833
113
upperback 5.107136 3.969072 -3.631142
rfoot -9.026158 -7.261364
lradius 19.304947
lthumb 7.941039 -290.956543
rradius 20.608025
lwrist 3.253889
rhand -23.087244 337.626038
rhumerus 67.316574 1.630974 -73.391953
lowerneck 4.731158 -1.725988 10.565397
lhand -18.341192 39.212318
ltibia 52.208817
head 6.682003 -1.835186 -2.410283
rwrist -4.993469
lfingers 7.125020
rtoes -0.638165
lowerback 1.421349 3.094430 7.853350
rfingers 7.125020
lclavicle 0.000000 0.000000
upperneck 24.855700 -4.272892 -1.155220
rfemur -40.183559 -1.871429 25.257252
thorax 5.396207 2.360633 -8.118335
rclavicle 0.000000 0.000000
rtibia 72.886902
lfoot -15.245500 27.097700
lhumerus 82.404396 -12.915178 74.386406
rthumb 3.358842 -412.327271
root 29.105854 18.257288 -1.885681 918.726685 313.416077 188.932449
ltoes 14.962988
lfemur -48.250889 -7.495515 -18.153576
